<svg xmlns="http://www.w3.org/2000/svg" viewBox="0 0 1600 900" fill="none">
<defs>
<radialGradient id="water" cx=".48" cy=".12" r=".95"><stop stop-color="#204956"/><stop offset=".4" stop-color="#0b2b3b"/><stop offset=".75" stop-color="#091d2e"/><stop offset="1" stop-color="#081423"/></radialGradient>
<linearGradient id="ray" x1="0" y1="0" x2="0" y2="1"><stop stop-color="#a9eed5" stop-opacity=".15"/><stop offset="1" stop-color="#a9eed5" stop-opacity="0"/></linearGradient>
<radialGradient id="moon"><stop stop-color="#c7eedc" stop-opacity=".6"/><stop offset=".12" stop-color="#bad9d0" stop-opacity=".12"/><stop offset="1" stop-color="#98d2c6" stop-opacity="0"/></radialGradient>
<radialGradient id="purple"><stop stop-color="#8173aa" stop-opacity=".14"/><stop offset="1" stop-color="#8173aa" stop-opacity="0"/></radialGradient>
</defs>
<path fill="url(#water)" d="M0 0h1600v900H0z"/>
<ellipse cx="810" cy="4" rx="540" ry="420" fill="url(#moon)"/>
<path d="m565-10 104 0-331 838-260 72Zm201-20 44 0-40 802-117 74Zm107 0 64 0 368 869-232-29Zm91 0 15 0 599 691-162 21Z" fill="url(#ray)"/>
<ellipse cx="1350" cy="423" rx="630" ry="370" fill="url(#purple)"/>
<g stroke="#74a49e" stroke-opacity=".13"><path d="M0 25q200-27 500 0t600 0 500 0M0 46q280-27 550 0t550-4 500 5M0 74q190-20 450-1t650 0 500 3"/></g>
<g fill="#1a3c47" opacity=".4"><path d="M6 650V242h29v408m19 0V275h40v375m-110 0v-330h170v330m-177-368 177-9 4 25H-20Z"/><path d="M1470 703V410h40v293m32 0V340h35v363m-151-293h174v30h-174Z"/><path d="M927 681V437q0-48 42-48t42 48v244h-15V445q0-31-27-31t-27 31v236Z"/></g>
<g stroke="#315760" stroke-width="1" opacity=".35"><path d="M119 309v319M31 260v361M1502 439v228M1564 359v319"/></g>
<path d="M0 726q63-91 174-76t179 149q113-27 174 47t137 54H0Z" fill="#0b202d"/>
<path d="M1600 652q-55 53-141 108t-182 14-163 78-119 48h605Z" fill="#101f31"/>
<path d="M0 794q166-52 301 37t277 27 231 42H0Z" fill="#0b1a26"/>
<path d="M1600 766q-144-29-257 38t-153 76-204 20h614Z" fill="#0a1928"/>
<path d="M-12 0Q0-9 12 0Q0 9-12 0l-6 7V-7Z" transform="translate(260 190) scale(0.4)" fill="#9ac7c0" opacity="0.13"/><path d="M-12 0Q0-9 12 0Q0 9-12 0l-6 7V-7Z" transform="translate(349 253) scale(0.5700000000000001)" fill="#9ac7c0" opacity="0.17"/><path d="M-12 0Q0-9 12 0Q0 9-12 0l-6 7V-7Z" transform="translate(438 316) scale(0.74)" fill="#9ac7c0" opacity="0.21000000000000002"/><path d="M-12 0Q0-9 12 0Q0 9-12 0l-6 7V-7Z" transform="translate(527 379) scale(0.4)" fill="#9ac7c0" opacity="0.13"/><path d="M-12 0Q0-9 12 0Q0 9-12 0l-6 7V-7Z" transform="translate(616 442) scale(0.5700000000000001)" fill="#9ac7c0" opacity="0.17"/><path d="M-12 0Q0-9 12 0Q0 9-12 0l-6 7V-7Z" transform="translate(705 505) scale(0.74)" fill="#9ac7c0" opacity="0.21000000000000002"/><path d="M-12 0Q0-9 12 0Q0 9-12 0l-6 7V-7Z" transform="translate(794 568) scale(0.4)" fill="#9ac7c0" opacity="0.13"/><path d="M-12 0Q0-9 12 0Q0 9-12 0l-6 7V-7Z" transform="translate(883 631) scale(0.5700000000000001)" fill="#9ac7c0" opacity="0.17"/><path d="M-12 0Q0-9 12 0Q0 9-12 0l-6 7V-7Z" transform="translate(972 694) scale(0.74)" fill="#9ac7c0" opacity="0.21000000000000002"/><path d="M-12 0Q0-9 12 0Q0 9-12 0l-6 7V-7Z" transform="translate(1061 252) scale(0.4)" fill="#9ac7c0" opacity="0.13"/><path d="M-12 0Q0-9 12 0Q0 9-12 0l-6 7V-7Z" transform="translate(1150 315) scale(0.5700000000000001)" fill="#9ac7c0" opacity="0.17"/><path d="M-12 0Q0-9 12 0Q0 9-12 0l-6 7V-7Z" transform="translate(1239 378) scale(0.74)" fill="#9ac7c0" opacity="0.21000000000000002"/><path d="M-12 0Q0-9 12 0Q0 9-12 0l-6 7V-7Z" transform="translate(1328 441) scale(0.4)" fill="#9ac7c0" opacity="0.13"/><path d="M-12 0Q0-9 12 0Q0 9-12 0l-6 7V-7Z" transform="translate(327 504) scale(0.5700000000000001)" fill="#9ac7c0" opacity="0.17"/><path d="M-12 0Q0-9 12 0Q0 9-12 0l-6 7V-7Z" transform="translate(416 567) scale(0.74)" fill="#9ac7c0" opacity="0.21000000000000002"/><path d="M-12 0Q0-9 12 0Q0 9-12 0l-6 7V-7Z" transform="translate(505 630) scale(0.4)" fill="#9ac7c0" opacity="0.13"/><path d="M-12 0Q0-9 12 0Q0 9-12 0l-6 7V-7Z" transform="translate(594 693) scale(0.5700000000000001)" fill="#9ac7c0" opacity="0.17"/><path d="M-12 0Q0-9 12 0Q0 9-12 0l-6 7V-7Z" transform="translate(683 251) scale(0.74)" fill="#9ac7c0" opacity="0.21000000000000002"/><path d="M-65 900Q-90 861.5 -37 830" stroke="#123b43" stroke-width="5" stroke-linecap="round"/><path d="M-58.0 882.5q-25 -23 -38 -25" stroke="#123b43" stroke-width="3"/><path d="M-51.0 865.0q25 -23 38 -25" stroke="#123b43" stroke-width="3"/><path d="M-44.0 847.5q-25 -23 -38 -25" stroke="#123b43" stroke-width="3"/><path d="M-36 892Q-61 824.35 9 769" stroke="#16424b" stroke-width="6" stroke-linecap="round"/><path d="M-24.75 861.25q25 -23 38 -25" stroke="#16424b" stroke-width="3"/><path d="M-13.5 830.5q-25 -23 -38 -25" stroke="#16424b" stroke-width="3"/><path d="M-2.25 799.75q25 -23 38 -25" stroke="#16424b" stroke-width="3"/><path d="M-7 884Q-32 787.2 55 708" stroke="#19505a" stroke-width="7" stroke-linecap="round"/><path d="M8.5 840.0q-25 -23 -38 -25" stroke="#19505a" stroke-width="3"/><path d="M24.0 796.0q25 -23 38 -25" stroke="#19505a" stroke-width="3"/><path d="M39.5 752.0q-25 -23 -38 -25" stroke="#19505a" stroke-width="3"/><path d="M22 876Q-3 750.05 101 647" stroke="#1b5d64" stroke-width="8" stroke-linecap="round"/><path d="M41.75 818.75q25 -23 38 -25" stroke="#1b5d64" stroke-width="3"/><path d="M61.5 761.5q-25 -23 -38 -25" stroke="#1b5d64" stroke-width="3"/><path d="M81.25 704.25q25 -23 38 -25" stroke="#1b5d64" stroke-width="3"/><path d="M51 868Q26 712.9 147 586" stroke="#123b43" stroke-width="9" stroke-linecap="round"/><path d="M75.0 797.5q-25 -23 -38 -25" stroke="#123b43" stroke-width="3"/><path d="M99.0 727.0q25 -23 38 -25" stroke="#123b43" stroke-width="3"/><path d="M123.0 656.5q-25 -23 -38 -25" stroke="#123b43" stroke-width="3"/><path d="M80 900Q55 858.75 193 825" stroke="#16424b" stroke-width="5" stroke-linecap="round"/><path d="M108.25 881.25q25 -23 38 -25" stroke="#16424b" stroke-width="3"/><path d="M136.5 862.5q-25 -23 -38 -25" stroke="#16424b" stroke-width="3"/><path d="M164.75 843.75q25 -23 38 -25" stroke="#16424b" stroke-width="3"/><path d="M109 892Q84 821.6 149 764" stroke="#19505a" stroke-width="6" stroke-linecap="round"/><path d="M119.0 860.0q-25 -23 -38 -25" stroke="#19505a" stroke-width="3"/><path d="M129.0 828.0q25 -23 38 -25" stroke="#19505a" stroke-width="3"/><path d="M139.0 796.0q-25 -23 -38 -25" stroke="#19505a" stroke-width="3"/><path d="M138 884Q113 784.45 195 703" stroke="#1b5d64" stroke-width="7" stroke-linecap="round"/><path d="M152.25 838.75q25 -23 38 -25" stroke="#1b5d64" stroke-width="3"/><path d="M166.5 793.5q-25 -23 -38 -25" stroke="#1b5d64" stroke-width="3"/><path d="M180.75 748.25q25 -23 38 -25" stroke="#1b5d64" stroke-width="3"/><path d="M167 876Q142 747.3 241 642" stroke="#123b43" stroke-width="8" stroke-linecap="round"/><path d="M185.5 817.5q-25 -23 -38 -25" stroke="#123b43" stroke-width="3"/><path d="M204.0 759.0q25 -23 38 -25" stroke="#123b43" stroke-width="3"/><path d="M222.5 700.5q-25 -23 -38 -25" stroke="#123b43" stroke-width="3"/><path d="M196 868Q171 710.15 287 581" stroke="#16424b" stroke-width="9" stroke-linecap="round"/><path d="M218.75 796.25q25 -23 38 -25" stroke="#16424b" stroke-width="3"/><path d="M241.5 724.5q-25 -23 -38 -25" stroke="#16424b" stroke-width="3"/><path d="M264.25 652.75q25 -23 38 -25" stroke="#16424b" stroke-width="3"/><path d="M225 900Q200 856.0 333 820" stroke="#19505a" stroke-width="5" stroke-linecap="round"/><path d="M252.0 880.0q-25 -23 -38 -25" stroke="#19505a" stroke-width="3"/><path d="M279.0 860.0q25 -23 38 -25" stroke="#19505a" stroke-width="3"/><path d="M306.0 840.0q-25 -23 -38 -25" stroke="#19505a" stroke-width="3"/><path d="M254 892Q229 818.85 289 759" stroke="#1b5d64" stroke-width="6" stroke-linecap="round"/><path d="M262.75 858.75q25 -23 38 -25" stroke="#1b5d64" stroke-width="3"/><path d="M271.5 825.5q-25 -23 -38 -25" stroke="#1b5d64" stroke-width="3"/><path d="M280.25 792.25q25 -23 38 -25" stroke="#1b5d64" stroke-width="3"/><path d="M283 884Q258 781.7 335 698" stroke="#123b43" stroke-width="7" stroke-linecap="round"/><path d="M296.0 837.5q-25 -23 -38 -25" stroke="#123b43" stroke-width="3"/><path d="M309.0 791.0q25 -23 38 -25" stroke="#123b43" stroke-width="3"/><path d="M322.0 744.5q-25 -23 -38 -25" stroke="#123b43" stroke-width="3"/><path d="M312 876Q287 744.55 381 637" stroke="#16424b" stroke-width="8" stroke-linecap="round"/><path d="M329.25 816.25q25 -23 38 -25" stroke="#16424b" stroke-width="3"/><path d="M346.5 756.5q-25 -23 -38 -25" stroke="#16424b" stroke-width="3"/><path d="M363.75 696.75q25 -23 38 -25" stroke="#16424b" stroke-width="3"/><path d="M341 868Q316 707.4 427 576" stroke="#19505a" stroke-width="9" stroke-linecap="round"/><path d="M362.5 795.0q-25 -23 -38 -25" stroke="#19505a" stroke-width="3"/><path d="M384.0 722.0q25 -23 38 -25" stroke="#19505a" stroke-width="3"/><path d="M405.5 649.0q-25 -23 -38 -25" stroke="#19505a" stroke-width="3"/><path d="M370 900Q345 853.25 473 815" stroke="#1b5d64" stroke-width="5" stroke-linecap="round"/><path d="M395.75 878.75q25 -23 38 -25" stroke="#1b5d64" stroke-width="3"/><path d="M421.5 857.5q-25 -23 -38 -25" stroke="#1b5d64" stroke-width="3"/><path d="M447.25 836.25q25 -23 38 -25" stroke="#1b5d64" stroke-width="3"/><path d="M1660 900Q1685 861.5 1632 830" stroke="#123b43" stroke-width="5" stroke-linecap="round"/><path d="M1653.0 882.5q-25 -23 -38 -25" stroke="#123b43" stroke-width="3"/><path d="M1646.0 865.0q25 -23 38 -25" stroke="#123b43" stroke-width="3"/><path d="M1639.0 847.5q-25 -23 -38 -25" stroke="#123b43" stroke-width="3"/><path d="M1630 892Q1655 824.35 1585 769" stroke="#16424b" stroke-width="6" stroke-linecap="round"/><path d="M1618.75 861.25q25 -23 38 -25" stroke="#16424b" stroke-width="3"/><path d="M1607.5 830.5q-25 -23 -38 -25" stroke="#16424b" stroke-width="3"/><path d="M1596.25 799.75q25 -23 38 -25" stroke="#16424b" stroke-width="3"/><path d="M1600 884Q1625 787.2 1538 708" stroke="#19505a" stroke-width="7" stroke-linecap="round"/><path d="M1584.5 840.0q-25 -23 -38 -25" stroke="#19505a" stroke-width="3"/><path d="M1569.0 796.0q25 -23 38 -25" stroke="#19505a" stroke-width="3"/><path d="M1553.5 752.0q-25 -23 -38 -25" stroke="#19505a" stroke-width="3"/><path d="M1570 876Q1595 750.05 1491 647" stroke="#1b5d64" stroke-width="8" stroke-linecap="round"/><path d="M1550.25 818.75q25 -23 38 -25" stroke="#1b5d64" stroke-width="3"/><path d="M1530.5 761.5q-25 -23 -38 -25" stroke="#1b5d64" stroke-width="3"/><path d="M1510.75 704.25q25 -23 38 -25" stroke="#1b5d64" stroke-width="3"/><path d="M1540 868Q1565 712.9 1444 586" stroke="#123b43" stroke-width="9" stroke-linecap="round"/><path d="M1516.0 797.5q-25 -23 -38 -25" stroke="#123b43" stroke-width="3"/><path d="M1492.0 727.0q25 -23 38 -25" stroke="#123b43" stroke-width="3"/><path d="M1468.0 656.5q-25 -23 -38 -25" stroke="#123b43" stroke-width="3"/><path d="M1510 900Q1535 858.75 1397 825" stroke="#16424b" stroke-width="5" stroke-linecap="round"/><path d="M1481.75 881.25q25 -23 38 -25" stroke="#16424b" stroke-width="3"/><path d="M1453.5 862.5q-25 -23 -38 -25" stroke="#16424b" stroke-width="3"/><path d="M1425.25 843.75q25 -23 38 -25" stroke="#16424b" stroke-width="3"/><path d="M1480 892Q1505 821.6 1440 764" stroke="#19505a" stroke-width="6" stroke-linecap="round"/><path d="M1470.0 860.0q-25 -23 -38 -25" stroke="#19505a" stroke-width="3"/><path d="M1460.0 828.0q25 -23 38 -25" stroke="#19505a" stroke-width="3"/><path d="M1450.0 796.0q-25 -23 -38 -25" stroke="#19505a" stroke-width="3"/><path d="M1450 884Q1475 784.45 1393 703" stroke="#1b5d64" stroke-width="7" stroke-linecap="round"/><path d="M1435.75 838.75q25 -23 38 -25" stroke="#1b5d64" stroke-width="3"/><path d="M1421.5 793.5q-25 -23 -38 -25" stroke="#1b5d64" stroke-width="3"/><path d="M1407.25 748.25q25 -23 38 -25" stroke="#1b5d64" stroke-width="3"/><path d="M1420 876Q1445 747.3 1346 642" stroke="#123b43" stroke-width="8" stroke-linecap="round"/><path d="M1401.5 817.5q-25 -23 -38 -25" stroke="#123b43" stroke-width="3"/><path d="M1383.0 759.0q25 -23 38 -25" stroke="#123b43" stroke-width="3"/><path d="M1364.5 700.5q-25 -23 -38 -25" stroke="#123b43" stroke-width="3"/><path d="M1390 868Q1415 710.15 1299 581" stroke="#16424b" stroke-width="9" stroke-linecap="round"/><path d="M1367.25 796.25q25 -23 38 -25" stroke="#16424b" stroke-width="3"/><path d="M1344.5 724.5q-25 -23 -38 -25" stroke="#16424b" stroke-width="3"/><path d="M1321.75 652.75q25 -23 38 -25" stroke="#16424b" stroke-width="3"/><path d="M1360 900Q1385 856.0 1252 820" stroke="#19505a" stroke-width="5" stroke-linecap="round"/><path d="M1333.0 880.0q-25 -23 -38 -25" stroke="#19505a" stroke-width="3"/><path d="M1306.0 860.0q25 -23 38 -25" stroke="#19505a" stroke-width="3"/><path d="M1279.0 840.0q-25 -23 -38 -25" stroke="#19505a" stroke-width="3"/><path d="M1330 892Q1355 818.85 1295 759" stroke="#1b5d64" stroke-width="6" stroke-linecap="round"/><path d="M1321.25 858.75q25 -23 38 -25" stroke="#1b5d64" stroke-width="3"/><path d="M1312.5 825.5q-25 -23 -38 -25" stroke="#1b5d64" stroke-width="3"/><path d="M1303.75 792.25q25 -23 38 -25" stroke="#1b5d64" stroke-width="3"/><path d="M1300 884Q1325 781.7 1248 698" stroke="#123b43" stroke-width="7" stroke-linecap="round"/><path d="M1287.0 837.5q-25 -23 -38 -25" stroke="#123b43" stroke-width="3"/><path d="M1274.0 791.0q25 -23 38 -25" stroke="#123b43" stroke-width="3"/><path d="M1261.0 744.5q-25 -23 -38 -25" stroke="#123b43" stroke-width="3"/><path d="M1270 876Q1295 744.55 1201 637" stroke="#16424b" stroke-width="8" stroke-linecap="round"/><path d="M1252.75 816.25q25 -23 38 -25" stroke="#16424b" stroke-width="3"/><path d="M1235.5 756.5q-25 -23 -38 -25" stroke="#16424b" stroke-width="3"/><path d="M1218.25 696.75q25 -23 38 -25" stroke="#16424b" stroke-width="3"/><path d="M1240 868Q1265 707.4 1154 576" stroke="#19505a" stroke-width="9" stroke-linecap="round"/><path d="M1218.5 795.0q-25 -23 -38 -25" stroke="#19505a" stroke-width="3"/><path d="M1197.0 722.0q25 -23 38 -25" stroke="#19505a" stroke-width="3"/><path d="M1175.5 649.0q-25 -23 -38 -25" stroke="#19505a" stroke-width="3"/><path d="M1210 900Q1235 853.25 1107 815" stroke="#1b5d64" stroke-width="5" stroke-linecap="round"/><path d="M1184.25 878.75q25 -23 38 -25" stroke="#1b5d64" stroke-width="3"/><path d="M1158.5 857.5q-25 -23 -38 -25" stroke="#1b5d64" stroke-width="3"/><path d="M1132.75 836.25q25 -23 38 -25" stroke="#1b5d64" stroke-width="3"/>
<g fill="#9de4cb" opacity=".45"><circle cx="121" cy="645" r="2"/><circle cx="271" cy="721" r="3"/><circle cx="349" cy="744" r="2"/><circle cx="1331" cy="691" r="2"/><circle cx="1446" cy="627" r="3"/><circle cx="1482" cy="746" r="2"/></g>
</svg>
